<svg xmlns="http://www.w3.org/2000/svg" viewBox="0 0 502.69 502.69">
  <path d="M486.896 253.06H138.312c-13.352 0-29.077 9.772-34.966 21.743L9.62 464.713c-5.888 11.972.195 21.743 13.504 21.743H371.73c13.35 0 29.076-9.772 34.965-21.743l93.747-189.91c5.89-11.97-.194-21.743-13.546-21.743z"/>
  <path d="M138.312 228.77h258.785v-.905h33.63V16.235H120.02v37.9H62.598v87.123H30.63c-16.825 0-30.63 13.827-30.63 30.61V429.38l81.624-165.318c9.88-20.105 34.297-35.29 56.688-35.29zM89.627 81.12h30.393v119.717H89.627V81.12zM403.74 43.24v157.597H147.07V43.24h256.67z"/>
</svg>
